HIERARCHY
ROOT Hips
{
    OFFSET 0.000000 0.000000 0.000000
    CHANNELS 6 Xposition Yposition Zposition Zrotation Xrotation Yrotation
    JOINT Spine
    {
        OFFSET -0.000000 7.979263 0.000000
        CHANNELS 3 Zrotation Xrotation Yrotation
        JOINT Spine1
        {
            OFFSET -0.000000 24.719021 0.000000
            CHANNELS 3 Zrotation Xrotation Yrotation
            JOINT Neck
            {
                OFFSET -0.000000 24.617504 2.237955
                CHANNELS 3 Zrotation Xrotation Yrotation
                JOINT Head
                {
                    OFFSET -0.000000 13.623132 -1.946162
                    CHANNELS 3 Zrotation Xrotation Yrotation
                    End Site
                    {
                        OFFSET -0.000000 24.327021 0.000000
                    }
                }
            }
            JOINT LeftShoulder
            {
                OFFSET 3.885773 23.018444 -0.302444
                CHANNELS 3 Zrotation Xrotation Yrotation
                JOINT LeftArm
                {
                    OFFSET 10.447750 0.000000 0.000000
                    CHANNELS 3 Zrotation Xrotation Yrotation
                    JOINT LeftForeArm
                    {
                        OFFSET 29.090096 0.000000 0.000000
                        CHANNELS 3 Zrotation Xrotation Yrotation
                        JOINT LeftHand
                        {
                            OFFSET 28.893339 0.000000 0.000000
                            CHANNELS 3 Zrotation Xrotation Yrotation
                            End Site
                            {
                                OFFSET 14.596213 0.000000 0.000000
                            }
                        }
                    }
                }
            }
            JOINT RightShoulder
            {
                OFFSET -3.864586 23.018444 -0.302444
                CHANNELS 3 Zrotation Xrotation Yrotation
                JOINT RightArm
                {
                    OFFSET -10.447750 0.000000 0.000000
                    CHANNELS 3 Zrotation Xrotation Yrotation
                    JOINT RightForeArm
                    {
                        OFFSET -29.090096 0.000000 0.000000
                        CHANNELS 3 Zrotation Xrotation Yrotation
                        JOINT RightHand
                        {
                            OFFSET -28.893339 0.000000 0.000000
                            CHANNELS 3 Zrotation Xrotation Yrotation
                            End Site
                            {
                                OFFSET -14.596213 0.000000 0.000000
                            }
                        }
                    }
                }
            }
        }
    }
    JOINT LeftUpLeg
    {
        OFFSET 9.730808 0.000000 0.000000
        CHANNELS 3 Zrotation Xrotation Yrotation
        JOINT LeftLeg
        {
            OFFSET -0.000000 -34.800129 0.000000
            CHANNELS 3 Zrotation Xrotation Yrotation
            JOINT LeftFoot
            {
                OFFSET -0.000000 -44.597416 0.000000
                CHANNELS 3 Zrotation Xrotation Yrotation
                JOINT LeftToeBase
                {
                    OFFSET -0.000000 -6.325025 14.596213
                    CHANNELS 3 Zrotation Xrotation Yrotation
                    End Site
                    {
                        OFFSET -0.000000 0.000000 3.892323
                    }
                }
            }
        }
    }
    JOINT RightUpLeg
    {
        OFFSET -9.730808 0.000000 0.000000
        CHANNELS 3 Zrotation Xrotation Yrotation
        JOINT RightLeg
        {
            OFFSET -0.000000 -34.800129 0.000000
            CHANNELS 3 Zrotation Xrotation Yrotation
            JOINT RightFoot
            {
                OFFSET -0.000000 -44.597416 0.000000
                CHANNELS 3 Zrotation Xrotation Yrotation
                JOINT RightToeBase
                {
                    OFFSET -0.000000 -6.325025 14.596213
                    CHANNELS 3 Zrotation Xrotation Yrotation
                    End Site
                    {
                        OFFSET -0.000000 0.000000 3.892323
                    }
                }
            }
        }
    }
}
MOTION
Frames:    7
Frame Time:    0.008333
22.585110    87.902534    37.146812    -3.862911    -1.185415    96.045891    -1.814868    -11.556772    -0.811911    2.081458    -4.267712    -0.550674    11.008051    25.437172    4.554782    -11.105470    -2.782012    3.875487    16.680725    1.496882    -14.458291    -19.087170    5.562342    6.304522    3.076858    -0.827581    2.277742    -1.485569    -0.867284    -1.654077    -11.834880    2.783715    -7.961213    9.773292    10.841539    7.998471    -0.339619    3.217788    -2.263457    -3.427644    3.105903    3.520158    1.288529    -1.654354    -8.959817    -0.546207    0.564271    1.355724    -3.788922    3.978550    10.596710    0.000000    0.000000    0.000000    2.126014    2.366700    -0.510068    1.623067    -2.015667    -8.301394    -0.220734    3.210834    -5.458175    0.000000    0.000000    0.000000    
22.585213    87.904915    37.132343    -3.855047    -1.185420    96.055214    -1.900126    -11.534128    -0.793187    2.164458    -4.298337    -0.519978    11.112910    25.447197    4.481670    -11.199838    -2.740155    3.797996    16.768850    1.533501    -14.604400    -19.126528    5.388757    6.362160    3.069085    -0.776319    2.231894    -1.305254    -0.819948    -1.422802    -11.837051    2.818058    -8.058407    9.685506    10.989211    8.062386    -0.519886    3.182298    -2.409350    -2.830131    3.080651    3.677335    1.277955    -1.630336    -8.967425    -0.542623    0.566081    1.069666    -3.787712    3.935296    10.882968    0.000000    0.000000    0.000000    2.120211    2.358294    -0.580478    1.620927    -1.981092    -8.205682    -0.196101    3.192611    -5.500574    0.000000    0.000000    0.000000    
22.587719    87.907234    37.119678    -3.838307    -1.190215    96.063103    -1.984038    -11.505385    -0.767771    2.238199    -4.328243    -0.483247    11.277961    25.271309    4.439320    -11.331912    -2.390000    3.760665    16.902401    1.573383    -14.753312    -19.194920    5.190587    6.392462    3.056710    -0.701344    2.259927    -1.002834    -0.749796    -1.356092    -11.773059    2.917940    -8.165992    9.511948    10.916476    8.073209    -0.484902    3.099760    -2.388507    -3.174053    2.987592    3.688873    1.279271    -1.583990    -9.061809    -0.543991    0.513559    1.194251    -3.797258    3.958481    10.852847    0.000000    0.000000    0.000000    2.117644    2.371464    -0.573129    1.623280    -1.967490    -8.190160    -0.191125    3.186950    -5.533198    0.000000    0.000000    0.000000    
22.588684    87.908974    37.106777    -3.830369    -1.195045    96.059708    -2.045947    -11.470192    -0.747994    2.284703    -4.384379    -0.455047    11.359001    25.119690    4.394336    -11.343576    -2.091960    3.730640    17.037897    1.618541    -14.861917    -19.259724    5.020899    6.408715    3.091874    -0.667438    2.226984    -1.128007    -0.716525    -1.122357    -11.714871    2.990263    -8.227145    9.369321    10.802039    8.046834    -0.514511    3.148823    -2.346213    -2.984068    3.043473    3.644664    1.270703    -1.569326    -9.055125    -0.533211    0.508127    1.218516    -3.790623    3.962001    10.825663    0.000000    0.000000    0.000000    2.115749    2.368194    -0.583807    1.620467    -1.946566    -8.188181    -0.201916    3.186233    -5.517542    0.000000    0.000000    0.000000    
22.590240    87.913506    37.093895    -3.811132    -1.213759    96.047058    -2.070963    -11.429557    -0.718665    2.297871    -4.431499    -0.422565    11.493044    25.242903    4.306198    -11.458068    -2.243259    3.631207    17.262775    1.832988    -14.815304    -19.333574    4.742260    6.147433    3.078150    -0.640451    2.304092    -1.011324    -0.693541    -0.999916    -11.631290    3.054620    -8.291592    9.209769    10.681182    8.023039    -0.566932    3.217920    -2.301222    -2.448101    3.127507    3.704326    1.281875    -1.545722    -9.039695    -0.526158    0.505903    1.166246    -3.784191    3.957229    10.863598    0.000000    0.000000    0.000000    2.127391    2.401268    -0.612170    1.624555    -1.973324    -8.154791    -0.171665    3.216475    -5.523112    0.000000    0.000000    0.000000    
22.589478    87.914833    37.080372    -3.804096    -1.217803    96.048950    -2.107073    -11.390984    -0.701364    2.291112    -4.502853    -0.401117    11.620752    25.294867    4.241061    -11.509578    -2.222354    3.574246    17.308187    1.701512    -15.132643    -19.361839    4.809183    6.503570    3.055550    -0.650051    2.249455    -0.843756    -0.703079    -0.939278    -11.523449    3.116285    -8.337082    9.070146    10.574184    7.981645    -0.592114    3.161207    -2.223689    -2.578880    3.069179    3.582926    1.274245    -1.547667    -9.028605    -0.524915    0.519612    1.183760    -3.790077    3.956347    10.839535    0.000000    0.000000    0.000000    2.122212    2.390755    -0.636843    1.630754    -1.939760    -8.111730    -0.209782    3.204215    -5.539804    0.000000    0.000000    0.000000    
22.592621    87.917648    37.068336    -3.783588    -1.226743    96.046890    -2.158193    -11.355192    -0.694703    2.355388    -4.560577    -0.386477    11.659332    25.372467    4.190500    -11.557271    -2.228606    3.525632    17.321985    1.750268    -15.298412    -19.319439    4.722977    6.635202    3.023583    -0.624570    2.227684    -0.957416    -0.675600    -0.934173    -11.506753    3.165582    -8.360325    8.945959    10.507399    8.002357    -0.584163    3.173297    -2.270676    -2.451992    3.086522    3.518880    1.276705    -1.538411    -9.036064    -0.526669    0.518891    1.467734    -3.774905    3.999120    10.552753    0.000000    0.000000    0.000000    2.132629    2.398371    -0.667649    1.618220    -1.914900    -8.090250    -0.199202    3.201497    -5.531102    0.000000    0.000000    0.000000    
